<?xml version="1.0" encoding="UTF-8" standalone="no"?><!DOCTYPE svg PUBLIC "-//W3C//DTD SVG 1.1//EN" "http://www.w3.org/Graphics/SVG/1.1/DTD/svg11.dtd"><svg width="100%" height="100%" viewBox="0 0 267 267" version="1.1" xmlns="http://www.w3.org/2000/svg" xmlns:xlink="http://www.w3.org/1999/xlink" xml:space="preserve" xmlns:serif="http://www.serif.com/" style="fill-rule:evenodd;clip-rule:evenodd;stroke-linejoin:round;stroke-miterlimit:2;"><path id="Phone" d="M47.088,12.792c1.813,-0 3.625,0.604 4.834,1.208c4.833,1.813 33.836,27.794 39.274,61.026c-0,0 -3.021,13.897 -16.918,33.232c-0,0 3.021,13.897 36.253,47.129c33.836,33.232 47.733,36.253 47.733,36.253c19.335,-13.897 33.836,-16.918 33.836,-16.918c33.836,5.438 59.818,34.441 61.63,39.274c6.647,15.106 -19.335,36.253 -19.335,36.253c-6.042,2.417 -12.688,3.626 -19.939,3.626c-53.775,-0 -125.073,-69.485 -128.698,-73.111c-1.813,-1.812 -93.05,-93.653 -70.089,-147.429c-0,0 17.522,-20.543 31.419,-20.543m38.67,167.972m-0,0m-38.67,-180.056c-18.731,-0 -37.462,20.543 -40.483,24.772l-1.208,1.209l-0.604,1.813c-25.982,59.817 61.63,149.846 72.506,160.721c8.459,8.46 79.756,76.736 137.157,76.736c9.063,0 16.918,-1.813 24.169,-4.834l1.813,-0.604l1.208,-1.208c5.438,-4.23 32.628,-28.399 22.96,-50.15c-3.625,-8.459 -33.232,-39.879 -70.693,-45.921l-2.417,-0.604l-2.417,0.604c-1.813,0.604 -14.501,3.021 -32.628,15.106c-6.042,-3.022 -18.126,-11.481 -38.065,-30.816c-19.335,-19.335 -27.794,-31.419 -30.816,-37.461c11.481,-18.127 14.502,-30.815 15.106,-32.024l0.604,-2.416l-0.604,-2.417c-6.042,-37.462 -38.066,-66.464 -46.525,-70.694c-2.417,-1.208 -5.438,-1.812 -9.063,-1.812Z" style="fill-rule:nonzero;"/></svg>